<svg width="900" height="250" viewBox="0 0 900 250" fill="none" xmlns="http://www.w3.org/2000/svg">
<rect width="900" height="250" fill="white"/>
<rect width="900" height="250" fill="url(#paint0_linear)"/>
<path d="M153.72 116.18C153.72 96.38 137.52 80.18 117.54 80.18C106.74 80.18 97.02 84.86 90.36 92.6C83.7 84.86 73.98 80.18 63.18 80.18C43.2 80.18 27 96.38 27 116.18V161.54C27 166.58 30.96 170.54 36 170.54C40.86 170.54 44.82 166.58 44.82 161.54V116.18C44.82 106.1 53.1 98 63.18 98C73.26 98 81.36 106.1 81.36 116.18V161.54C81.36 166.58 85.5 170.54 90.36 170.54C95.22 170.54 99.18 166.58 99.18 161.54V116.18C99.18 106.1 107.46 98 117.54 98C127.62 98 135.9 106.1 135.9 116.18C135.9 116.54 135.9 116.72 135.9 116.9C135.9 117.26 135.9 117.44 135.9 117.8V161.54C135.9 166.58 139.86 170.54 144.72 170.54C149.58 170.54 153.72 166.58 153.72 161.54V117.8C153.72 117.44 153.72 117.418 153.72 116.949C153.72 116.57 153.72 116.54 153.72 116.18Z" fill="url(#paint1_linear)"/>
<path d="M209.535 79.82C184.515 79.82 164.355 99.98 164.355 125C164.355 149.84 184.515 170.18 209.535 170.18C216.195 170.18 225.375 170.36 237.255 162.44C241.395 159.74 243.735 155.06 241.575 150.56C239.415 146.24 233.835 143.72 229.695 146.42C221.055 152 213.675 152.36 209.535 152.36C197.475 152.36 187.395 144.62 183.615 133.82H245.715C250.755 133.82 254.715 129.86 254.715 125C254.715 95.66 231.315 79.82 209.535 79.82ZM209.535 97.64C220.335 97.64 231.855 103.4 235.635 116H183.615C187.395 105.38 197.475 97.64 209.535 97.64Z" fill="url(#paint2_linear)"/>
<path d="M355.874 125C355.874 99.98 335.534 79.82 310.694 79.82C285.674 79.82 265.514 99.98 265.514 125C265.514 149.84 285.674 170.18 310.694 170.18C320.954 170.18 330.314 166.58 338.054 160.82C338.054 170.36 338.054 170.54 338.054 170.72C337.694 185.48 325.634 197.54 310.694 197.54C300.074 197.54 290.714 191.6 286.034 182.06C283.874 177.74 278.474 175.94 274.154 178.1C269.654 180.26 267.854 185.48 270.014 189.98C277.754 205.64 293.234 215.36 310.694 215.36C335.534 215.36 355.874 195.02 355.874 170.18C355.874 125 355.874 125 355.874 125ZM310.694 152.36C295.574 152.36 283.334 139.94 283.334 125C283.334 109.88 295.574 97.64 310.694 97.64C325.634 97.64 338.054 109.88 338.054 125C338.054 139.94 325.634 152.36 310.694 152.36Z" fill="url(#paint3_linear)"/>
<path d="M412.124 80.18C386.744 80.18 366.584 100.34 366.584 125.72C366.584 151.1 386.744 170 412.124 170C422.384 170 431.024 167.48 438.764 161C438.764 166.22 443.804 170 447.404 170C452.624 170 456.404 166.22 456.404 161V125.72C456.404 100.34 437.504 80.18 412.124 80.18ZM412.124 152.36C397.004 152.36 384.224 140.84 384.224 125.72C384.224 110.6 397.004 97.82 412.124 97.82C427.244 97.82 438.764 110.6 438.764 125.72C438.764 140.84 427.244 152.36 412.124 152.36Z" fill="url(#paint4_linear)"/>
<path d="M580.431 80.72C575.751 78.92 570.711 81.26 568.911 85.94L550.011 136.16L531.291 86.3C530.571 83.78 528.591 81.62 526.071 80.72C525.891 80.72 525.891 80.72 525.711 80.54C525.711 80.54 525.531 80.54 525.351 80.54C525.171 80.36 525.171 80.36 524.991 80.36C524.991 80.36 524.991 80.36 524.811 80.36H524.631C524.451 80.36 524.451 80.18 524.451 80.18C524.271 80.18 524.271 80.18 524.091 80.18C524.091 80.18 524.091 80.18 523.911 80.18C523.911 80.18 523.911 80.18 523.731 80.18H523.551C523.371 80.18 523.371 80.18 523.371 80.18C523.191 80.18 523.191 80.18 523.011 80.18C523.011 80.18 523.011 80.18 522.831 80.18C522.831 80.18 522.651 80.18 522.471 80.18C521.571 80.18 520.671 80.36 519.771 80.72C517.071 81.62 515.271 83.78 514.371 86.3L495.651 136.16L476.751 85.94C475.131 81.26 469.911 78.92 465.411 80.72C460.731 82.34 458.391 87.56 460.191 92.24L487.191 164.24C488.451 167.84 491.871 170.18 495.651 170.18C499.431 170.18 502.851 167.66 504.291 164.24L522.831 114.38L541.551 164.24C542.811 167.84 546.231 170.18 550.011 170.18C553.791 170.18 557.211 167.66 558.651 164.24L585.651 92.24C587.271 87.56 584.931 82.34 580.431 80.72Z" fill="url(#paint5_linear)"/>
<path d="M634.483 170.18C659.503 170.18 679.663 149.84 679.663 125C679.663 99.98 659.503 79.82 634.483 79.82C609.643 79.82 589.303 99.98 589.303 125C589.303 149.84 609.643 170.18 634.483 170.18ZM634.483 97.64C649.603 97.64 661.843 109.88 661.843 125C661.843 139.94 649.603 152.36 634.483 152.36C619.363 152.36 607.123 139.94 607.123 125C607.123 109.88 619.363 97.64 634.483 97.64Z" fill="url(#paint6_linear)"/>
<path d="M735.382 80C710.542 80 690.202 100.16 690.202 125.18V161.36C690.202 166.22 694.162 170.36 699.202 170.36C704.062 170.36 708.022 166.22 708.022 161.36V125.18C708.022 110.06 720.262 97.82 735.382 97.82C740.422 97.82 744.382 93.68 744.382 88.82C744.382 83.96 740.422 80 735.382 80Z" fill="url(#paint7_linear)"/>
<path d="M764.262 170.36C769.122 170.36 773.082 166.4 773.082 161.36V44.18C773.082 39.32 769.122 35.36 764.262 35.36C759.222 35.36 755.262 39.32 755.262 44.18V161.36C755.262 166.4 759.222 170.36 764.262 170.36Z" fill="url(#paint8_linear)"/>
<path d="M828.726 79.46C803.706 79.46 783.546 99.62 783.546 124.64C783.546 149.48 803.706 169.82 828.726 169.82C853.566 169.82 873.906 149.48 873.906 124.64V124.46V43.82C873.906 38.96 869.946 35 864.906 35C860.046 35 856.086 38.96 856.086 43.82V88.64C848.526 82.88 838.986 79.46 828.726 79.46ZM828.726 152C813.606 152 801.366 139.58 801.366 124.64C801.366 109.52 813.606 97.28 828.726 97.28C843.846 97.28 856.086 109.52 856.086 124.46V124.64C856.086 139.76 843.846 152 828.726 152Z" fill="url(#paint9_linear)"/>
<defs>
<linearGradient id="paint0_linear" x1="0" y1="125" x2="900" y2="125" gradientUnits="userSpaceOnUse">
<stop stop-color="#AC32E4"/>
<stop offset="0.48" stop-color="#7918F2"/>
<stop offset="1" stop-color="#4801FF"/>
</linearGradient>
<linearGradient id="paint1_linear" x1="27" y1="125.18" x2="873.906" y2="125.18" gradientUnits="userSpaceOnUse">
<stop stop-color="#FDFBFB"/>
<stop offset="1" stop-color="#EBEDEE"/>
</linearGradient>
<linearGradient id="paint2_linear" x1="27" y1="125.18" x2="873.906" y2="125.18" gradientUnits="userSpaceOnUse">
<stop stop-color="#FDFBFB"/>
<stop offset="1" stop-color="#EBEDEE"/>
</linearGradient>
<linearGradient id="paint3_linear" x1="27" y1="125.18" x2="873.906" y2="125.18" gradientUnits="userSpaceOnUse">
<stop stop-color="#FDFBFB"/>
<stop offset="1" stop-color="#EBEDEE"/>
</linearGradient>
<linearGradient id="paint4_linear" x1="27" y1="125.18" x2="873.906" y2="125.18" gradientUnits="userSpaceOnUse">
<stop stop-color="#FDFBFB"/>
<stop offset="1" stop-color="#EBEDEE"/>
</linearGradient>
<linearGradient id="paint5_linear" x1="27" y1="125.18" x2="873.906" y2="125.18" gradientUnits="userSpaceOnUse">
<stop stop-color="#FDFBFB"/>
<stop offset="1" stop-color="#EBEDEE"/>
</linearGradient>
<linearGradient id="paint6_linear" x1="27" y1="125.18" x2="873.906" y2="125.18" gradientUnits="userSpaceOnUse">
<stop stop-color="#FDFBFB"/>
<stop offset="1" stop-color="#EBEDEE"/>
</linearGradient>
<linearGradient id="paint7_linear" x1="27" y1="125.18" x2="873.906" y2="125.18" gradientUnits="userSpaceOnUse">
<stop stop-color="#FDFBFB"/>
<stop offset="1" stop-color="#EBEDEE"/>
</linearGradient>
<linearGradient id="paint8_linear" x1="27" y1="125.18" x2="873.906" y2="125.18" gradientUnits="userSpaceOnUse">
<stop stop-color="#FDFBFB"/>
<stop offset="1" stop-color="#EBEDEE"/>
</linearGradient>
<linearGradient id="paint9_linear" x1="27" y1="125.18" x2="873.906" y2="125.18" gradientUnits="userSpaceOnUse">
<stop stop-color="#FDFBFB"/>
<stop offset="1" stop-color="#EBEDEE"/>
</linearGradient>
</defs>
</svg>
