<svg version="1" xmlns="http://www.w3.org/2000/svg" width="682.667" height="682.667" viewBox="0 0 512.000000 512.000000"><path d="M21.9 1.4C12.6 4.7 5.4 11.8 2 20.7 0 26 0 28.2 0 256v229.9l2.2 5.8c2.9 7.8 10.3 15.2 18.1 18.2l5.8 2.1 231.7-.2 231.7-.3 5.3-2.9c6-3.4 11.1-8.5 14.4-14.8l2.3-4.3v-467l-2.9-5.3c-3.4-6-8.5-11.1-14.8-14.4L489.5.5l-232-.2C69.5.1 24.8.3 21.9 1.4zm100.6 176.1c9.2 1.9 19.7 7.2 26.5 13.3l5.5 4.9 5.7-5.2c7.1-6.4 16.1-10.9 26.1-12.9 9.4-2 14.2-2 23.2-.1 21.4 4.5 39.9 22.3 44.5 42.8.6 2.9 1 20.9 1 47.2.1 46.9.1 46.6-6.3 50.6-2.5 1.6-4.4 1.9-8.6 1.6-4.9-.3-5.9-.8-8.7-4.1-1.7-2-3.4-5.3-3.8-7.4-.3-2-.6-21.3-.6-42.7 0-38.9 0-39-2.4-44-10.7-22.6-42.6-22.5-53.7.1-2.4 4.9-2.4 5.1-2.9 47.4-.4 32.5-.8 43-1.8 44.8-3.7 6.4-14.5 8.3-20.3 3.5-5.8-5-5.9-5.4-5.9-49.1 0-45.2-.1-45.7-7.6-54.1-14-15.6-39-11.6-48.6 7.7-2.3 4.6-2.3 5.2-2.8 47.2-.4 32.5-.8 43-1.8 44.8-2.1 3.7-7.2 6.2-12.4 6.2-3.9 0-5.4-.6-8.3-3.1-1.9-1.7-4-4.7-4.6-6.7-.7-2.5-.9-17.2-.6-45.7.3-34.9.6-42.8 1.9-46.6 7.2-20.8 23.6-36 43.4-40.3 8.9-1.9 15.3-1.9 23.9-.1zm161.8-.1c1.8.7 4 2.2 4.9 3.3 1 1 8.6 20.2 17 42.6 8.4 22.4 15.7 40.8 16.1 40.9.5.2 7.8-18.1 16.2-40.5 9.3-24.8 16.2-41.8 17.6-43.3 5-5.3 14.7-5.4 19.7-.1 1.2 1.3 8.7 19.8 17.5 43.2 8.5 22.6 15.7 41 16.1 41 .5 0 7.7-18.4 16.1-40.8 9.1-24.3 16.2-41.9 17.6-43.3 8.4-9 24.1-2.3 23.9 10.3-.1 1.5-10.1 29.6-22.4 62.3-16.4 43.6-23.1 60.2-25 62.2-1.5 1.5-4.4 3.3-6.6 3.9-5.1 1.6-12.3-1-14.9-5.2-.9-1.5-8.4-20.8-16.7-42.8C373.2 249 366.3 231 366 231c-.3 0-7.2 18.3-15.5 40.6-16.1 43.7-16.9 45.3-24.5 47.5-3.3 1-4.7.9-8.5-.6-2.5-.9-5.2-2.7-6-3.9-.8-1.2-11.6-29.1-24-62.1-24.3-64.4-24.2-64.3-19.8-70.4 2.3-3 7.8-6.1 11.1-6.1 1.2 0 3.7.6 5.5 1.4z"/></svg>