<svg width="301" height="81" viewBox="0 0 301 81" fill="none" xmlns="http://www.w3.org/2000/svg">
<rect width="301" height="81" fill="black"/>
<path d="M16.55 63.99L17.96 65.4L19.76 63.61L18.34 62.19L16.55 63.99ZM24 67.9C24.32 67.9 26 67.9 26 67.9V64.95H24V67.9ZM25 50.95C23.4087 50.95 21.8826 51.5821 20.7574 52.7074C19.6321 53.8326 19 55.3587 19 56.95C19 58.5413 19.6321 60.0674 20.7574 61.1926C21.8826 62.3179 23.4087 62.95 25 62.95C26.5913 62.95 28.1174 62.3179 29.2426 61.1926C30.3679 60.0674 31 58.5413 31 56.95C31 53.63 28.31 50.95 25 50.95ZM33 57.95H36V55.95H33V57.95ZM30.24 63.61L32.04 65.4L33.45 63.99L31.66 62.19L30.24 63.61ZM33.45 49.91L32.04 48.5L30.24 50.29L31.66 51.71L33.45 49.91ZM26 46H24V48.95H26V46ZM17 55.95H14V57.95H17V55.95ZM19.76 50.29L17.96 48.5L16.55 49.91L18.34 51.71L19.76 50.29Z" fill="white"/>
<line x1="50" y1="57" x2="254" y2="57" stroke="#A2A2A2" stroke-width="2" stroke-linecap="round"/>
<line x1="50" y1="57" x2="216" y2="57" stroke="#065378" stroke-width="2" stroke-linecap="round"/>
<circle cx="211" cy="57" r="10" fill="#065378"/>
<path d="M16.3477 13.5977L13.2363 22H12.1523L9.10547 13.5977H10.2012L12.5273 20.2598C12.6016 20.4746 12.6582 20.7227 12.6973 21.0039H12.7207C12.752 20.7695 12.8164 20.5176 12.9141 20.248L15.2871 13.5977H16.3477ZM23.3555 22H22.1543L20.2207 18.7832C20.1621 18.6855 20.0977 18.5469 20.0273 18.3672H20.0039C19.9648 18.457 19.8984 18.5957 19.8047 18.7832L17.8125 22H16.6055L19.418 17.7754L16.8281 13.5977H18.0352L19.752 16.5508C19.8652 16.7461 19.9648 16.9414 20.0508 17.1367H20.0742C20.1992 16.8789 20.3086 16.6758 20.4023 16.5273L22.1895 13.5977H23.3203L20.6777 17.7637L23.3555 22ZM28.0547 15.8008C28.0547 15.543 28.0137 15.3184 27.9316 15.127C27.8535 14.9355 27.7441 14.7773 27.6035 14.6523C27.4668 14.5234 27.3047 14.4277 27.1172 14.3652C26.9297 14.3027 26.7266 14.2715 26.5078 14.2715C26.3203 14.2715 26.1367 14.2969 25.957 14.3477C25.7773 14.3984 25.6016 14.4688 25.4297 14.5586C25.2617 14.6484 25.0977 14.7559 24.9375 14.8809C24.7812 15.0059 24.6348 15.1445 24.498 15.2969V14.2656C24.7676 14.0039 25.0684 13.8047 25.4004 13.668C25.7363 13.5273 26.1445 13.457 26.625 13.457C26.9688 13.457 27.2871 13.5078 27.5801 13.6094C27.873 13.707 28.127 13.8516 28.3418 14.043C28.5566 14.2344 28.7246 14.4707 28.8457 14.752C28.9707 15.0332 29.0332 15.3555 29.0332 15.7188C29.0332 16.0508 28.9941 16.3516 28.916 16.6211C28.8418 16.8906 28.7266 17.1445 28.5703 17.3828C28.418 17.6211 28.2246 17.8496 27.9902 18.0684C27.7559 18.2871 27.4805 18.5098 27.1641 18.7363C26.7695 19.0176 26.4434 19.2578 26.1855 19.457C25.9316 19.6562 25.7285 19.8438 25.5762 20.0195C25.4277 20.1914 25.3223 20.3652 25.2598 20.541C25.2012 20.7129 25.1719 20.9121 25.1719 21.1387H29.3555V22H24.1699V21.584C24.1699 21.2246 24.209 20.9082 24.2871 20.6348C24.3652 20.3613 24.4941 20.1016 24.6738 19.8555C24.8535 19.6094 25.0879 19.3633 25.377 19.1172C25.6699 18.8711 26.0273 18.5938 26.4492 18.2852C26.7539 18.0664 27.0078 17.8574 27.2109 17.6582C27.418 17.459 27.584 17.2598 27.709 17.0605C27.834 16.8613 27.9219 16.6602 27.9727 16.457C28.0273 16.25 28.0547 16.0312 28.0547 15.8008ZM34.5234 15.8008C34.5234 15.543 34.4824 15.3184 34.4004 15.127C34.3223 14.9355 34.2129 14.7773 34.0723 14.6523C33.9355 14.5234 33.7734 14.4277 33.5859 14.3652C33.3984 14.3027 33.1953 14.2715 32.9766 14.2715C32.7891 14.2715 32.6055 14.2969 32.4258 14.3477C32.2461 14.3984 32.0703 14.4688 31.8984 14.5586C31.7305 14.6484 31.5664 14.7559 31.4062 14.8809C31.25 15.0059 31.1035 15.1445 30.9668 15.2969V14.2656C31.2363 14.0039 31.5371 13.8047 31.8691 13.668C32.2051 13.5273 32.6133 13.457 33.0938 13.457C33.4375 13.457 33.7559 13.5078 34.0488 13.6094C34.3418 13.707 34.5957 13.8516 34.8105 14.043C35.0254 14.2344 35.1934 14.4707 35.3145 14.752C35.4395 15.0332 35.502 15.3555 35.502 15.7188C35.502 16.0508 35.4629 16.3516 35.3848 16.6211C35.3105 16.8906 35.1953 17.1445 35.0391 17.3828C34.8867 17.6211 34.6934 17.8496 34.459 18.0684C34.2246 18.2871 33.9492 18.5098 33.6328 18.7363C33.2383 19.0176 32.9121 19.2578 32.6543 19.457C32.4004 19.6562 32.1973 19.8438 32.0449 20.0195C31.8965 20.1914 31.791 20.3652 31.7285 20.541C31.6699 20.7129 31.6406 20.9121 31.6406 21.1387H35.8242V22H30.6387V21.584C30.6387 21.2246 30.6777 20.9082 30.7559 20.6348C30.834 20.3613 30.9629 20.1016 31.1426 19.8555C31.3223 19.6094 31.5566 19.3633 31.8457 19.1172C32.1387 18.8711 32.4961 18.5938 32.918 18.2852C33.2227 18.0664 33.4766 17.8574 33.6797 17.6582C33.8867 17.459 34.0527 17.2598 34.1777 17.0605C34.3027 16.8613 34.3906 16.6602 34.4414 16.457C34.4961 16.25 34.5234 16.0312 34.5234 15.8008ZM42.457 19.334C42.457 19.7441 42.3906 20.1211 42.2578 20.4648C42.125 20.8086 41.9414 21.1055 41.707 21.3555C41.4727 21.6055 41.1934 21.8008 40.8691 21.9414C40.5449 22.0781 40.1934 22.1465 39.8145 22.1465C39.3926 22.1465 39.0137 22.0586 38.6777 21.8828C38.3457 21.707 38.0625 21.4551 37.8281 21.127C37.5977 20.7949 37.4219 20.3906 37.3008 19.9141C37.1797 19.4375 37.1191 18.9004 37.1191 18.3027C37.1191 17.5723 37.1992 16.9102 37.3594 16.3164C37.5234 15.7188 37.7539 15.209 38.0508 14.7871C38.3516 14.3613 38.7129 14.0332 39.1348 13.8027C39.5566 13.5723 40.0273 13.457 40.5469 13.457C41.125 13.457 41.5898 13.5371 41.9414 13.6973V14.6055C41.5078 14.3828 41.0508 14.2715 40.5703 14.2715C40.1953 14.2715 39.8574 14.3555 39.5566 14.5234C39.2559 14.6914 38.998 14.9297 38.7832 15.2383C38.5684 15.543 38.4023 15.9121 38.2852 16.3457C38.1719 16.7793 38.1152 17.2617 38.1152 17.793H38.1387C38.5254 17.0938 39.1641 16.7441 40.0547 16.7441C40.4219 16.7441 40.752 16.8066 41.0449 16.9316C41.3418 17.0566 41.5938 17.2344 41.8008 17.4648C42.0117 17.6914 42.1738 17.9629 42.2871 18.2793C42.4004 18.5957 42.457 18.9473 42.457 19.334ZM41.4727 19.457C41.4727 19.1641 41.4355 18.9004 41.3613 18.666C41.2871 18.4316 41.1797 18.2324 41.0391 18.0684C40.9023 17.9043 40.7324 17.7793 40.5293 17.6934C40.3262 17.6035 40.0957 17.5586 39.8379 17.5586C39.5996 17.5586 39.3789 17.6035 39.1758 17.6934C38.9727 17.7832 38.7969 17.9062 38.6484 18.0625C38.5 18.2148 38.3828 18.3945 38.2969 18.6016C38.2148 18.8047 38.1738 19.0215 38.1738 19.252C38.1738 19.541 38.2148 19.8125 38.2969 20.0664C38.3789 20.3164 38.4941 20.5352 38.6426 20.7227C38.791 20.9102 38.9668 21.0586 39.1699 21.168C39.377 21.2734 39.6055 21.3262 39.8555 21.3262C40.0977 21.3262 40.3184 21.2812 40.5176 21.1914C40.7168 21.0977 40.8867 20.9688 41.0273 20.8047C41.168 20.6406 41.2773 20.4453 41.3555 20.2188C41.4336 19.9883 41.4727 19.7344 41.4727 19.457ZM48.5215 19.6211C48.5215 20 48.4492 20.3457 48.3047 20.6582C48.1641 20.9668 47.9629 21.2324 47.7012 21.4551C47.4434 21.6738 47.1328 21.8438 46.7695 21.9648C46.4062 22.0859 46.0059 22.1465 45.5684 22.1465C44.7676 22.1465 44.1309 21.9941 43.6582 21.6895V20.6582C44.2246 21.1035 44.873 21.3262 45.6035 21.3262C45.8965 21.3262 46.1602 21.2891 46.3945 21.2148C46.6328 21.1406 46.8359 21.0332 47.0039 20.8926C47.1758 20.752 47.3066 20.582 47.3965 20.3828C47.4902 20.1836 47.5371 19.959 47.5371 19.709C47.5371 18.6113 46.7559 18.0625 45.1934 18.0625H44.4961V17.248H45.1582C46.541 17.248 47.2324 16.7324 47.2324 15.7012C47.2324 14.748 46.7051 14.2715 45.6504 14.2715C45.0566 14.2715 44.5 14.4707 43.9805 14.8691V13.9375C44.5156 13.6172 45.1523 13.457 45.8906 13.457C46.2422 13.457 46.5605 13.5059 46.8457 13.6035C47.1309 13.7012 47.375 13.8379 47.5781 14.0137C47.7812 14.1895 47.9375 14.4004 48.0469 14.6465C48.1602 14.8926 48.2168 15.1641 48.2168 15.4609C48.2168 16.5664 47.6582 17.2773 46.541 17.5938V17.6172C46.8262 17.6484 47.0898 17.7188 47.332 17.8281C47.5742 17.9336 47.7832 18.0723 47.959 18.2441C48.1348 18.416 48.2715 18.6191 48.3691 18.8535C48.4707 19.084 48.5215 19.3398 48.5215 19.6211ZM53.4082 21.6602V20.5C53.541 20.6172 53.6992 20.7227 53.8828 20.8164C54.0703 20.9102 54.2656 20.9902 54.4688 21.0566C54.6758 21.1191 54.8828 21.168 55.0898 21.2031C55.2969 21.2383 55.4883 21.2559 55.6641 21.2559C56.2695 21.2559 56.7207 21.1445 57.0176 20.9219C57.3184 20.6953 57.4688 20.3711 57.4688 19.9492C57.4688 19.7227 57.418 19.5254 57.3164 19.3574C57.2188 19.1895 57.082 19.0371 56.9062 18.9004C56.7305 18.7598 56.5215 18.627 56.2793 18.502C56.041 18.373 55.7832 18.2383 55.5059 18.0977C55.2129 17.9492 54.9395 17.7988 54.6855 17.6465C54.4316 17.4941 54.2109 17.3262 54.0234 17.1426C53.8359 16.959 53.6875 16.752 53.5781 16.5215C53.4727 16.2871 53.4199 16.0137 53.4199 15.7012C53.4199 15.3184 53.5039 14.9863 53.6719 14.7051C53.8398 14.4199 54.0605 14.1855 54.334 14.002C54.6074 13.8184 54.918 13.6816 55.2656 13.5918C55.6172 13.502 55.9746 13.457 56.3379 13.457C57.166 13.457 57.7695 13.5566 58.1484 13.7559V14.8633C57.6523 14.5195 57.0156 14.3477 56.2383 14.3477C56.0234 14.3477 55.8086 14.3711 55.5938 14.418C55.3789 14.4609 55.1875 14.5332 55.0195 14.6348C54.8516 14.7363 54.7148 14.8672 54.6094 15.0273C54.5039 15.1875 54.4512 15.3828 54.4512 15.6133C54.4512 15.8281 54.4902 16.0137 54.5684 16.1699C54.6504 16.3262 54.7695 16.4688 54.9258 16.5977C55.082 16.7266 55.2715 16.8516 55.4941 16.9727C55.7207 17.0938 55.9805 17.2266 56.2734 17.3711C56.5742 17.5195 56.8594 17.6758 57.1289 17.8398C57.3984 18.0039 57.6348 18.1855 57.8379 18.3848C58.041 18.584 58.2012 18.8047 58.3184 19.0469C58.4395 19.2891 58.5 19.5664 58.5 19.8789C58.5 20.293 58.418 20.6445 58.2539 20.9336C58.0938 21.2188 57.875 21.4512 57.5977 21.6309C57.3242 21.8105 57.0078 21.9395 56.6484 22.0176C56.2891 22.0996 55.9102 22.1406 55.5117 22.1406C55.3789 22.1406 55.2148 22.1289 55.0195 22.1055C54.8242 22.0859 54.625 22.0547 54.4219 22.0117C54.2188 21.9727 54.0254 21.9238 53.8418 21.8652C53.6621 21.8027 53.5176 21.7344 53.4082 21.6602ZM64.8691 19.2402H60.6328C60.6484 19.9082 60.8281 20.4238 61.1719 20.7871C61.5156 21.1504 61.9883 21.332 62.5898 21.332C63.2656 21.332 63.8867 21.1094 64.4531 20.6641V21.5664C63.9258 21.9492 63.2285 22.1406 62.3613 22.1406C61.5137 22.1406 60.8477 21.8691 60.3633 21.3262C59.8789 20.7793 59.6367 20.0117 59.6367 19.0234C59.6367 18.0898 59.9004 17.3301 60.4277 16.7441C60.959 16.1543 61.6172 15.8594 62.4023 15.8594C63.1875 15.8594 63.7949 16.1133 64.2246 16.6211C64.6543 17.1289 64.8691 17.834 64.8691 18.7363V19.2402ZM63.8848 18.4258C63.8809 17.8711 63.7461 17.4395 63.4805 17.1309C63.2188 16.8223 62.8535 16.668 62.3848 16.668C61.9316 16.668 61.5469 16.8301 61.2305 17.1543C60.9141 17.4785 60.7188 17.9023 60.6445 18.4258H63.8848ZM69.457 16.9727C69.2891 16.8438 69.0469 16.7793 68.7305 16.7793C68.3203 16.7793 67.9766 16.9727 67.6992 17.3594C67.4258 17.7461 67.2891 18.2734 67.2891 18.9414V22H66.3281V16H67.2891V17.2363H67.3125C67.4492 16.8145 67.6582 16.4863 67.9395 16.252C68.2207 16.0137 68.5352 15.8945 68.8828 15.8945C69.1328 15.8945 69.3242 15.9219 69.457 15.9766V16.9727ZM70.9922 14.4766C70.8203 14.4766 70.6738 14.418 70.5527 14.3008C70.4316 14.1836 70.3711 14.0352 70.3711 13.8555C70.3711 13.6758 70.4316 13.5273 70.5527 13.4102C70.6738 13.2891 70.8203 13.2285 70.9922 13.2285C71.168 13.2285 71.3164 13.2891 71.4375 13.4102C71.5625 13.5273 71.625 13.6758 71.625 13.8555C71.625 14.0273 71.5625 14.1738 71.4375 14.2949C71.3164 14.416 71.168 14.4766 70.9922 14.4766ZM71.4609 22H70.5V16H71.4609V22ZM78.2285 19.2402H73.9922C74.0078 19.9082 74.1875 20.4238 74.5312 20.7871C74.875 21.1504 75.3477 21.332 75.9492 21.332C76.625 21.332 77.2461 21.1094 77.8125 20.6641V21.5664C77.2852 21.9492 76.5879 22.1406 75.7207 22.1406C74.873 22.1406 74.207 21.8691 73.7227 21.3262C73.2383 20.7793 72.9961 20.0117 72.9961 19.0234C72.9961 18.0898 73.2598 17.3301 73.7871 16.7441C74.3184 16.1543 74.9766 15.8594 75.7617 15.8594C76.5469 15.8594 77.1543 16.1133 77.584 16.6211C78.0137 17.1289 78.2285 17.834 78.2285 18.7363V19.2402ZM77.2441 18.4258C77.2402 17.8711 77.1055 17.4395 76.8398 17.1309C76.5781 16.8223 76.2129 16.668 75.7441 16.668C75.291 16.668 74.9062 16.8301 74.5898 17.1543C74.2734 17.4785 74.0781 17.9023 74.0039 18.4258H77.2441ZM79.3242 21.7832V20.752C79.8477 21.1387 80.4238 21.332 81.0527 21.332C81.8965 21.332 82.3184 21.0508 82.3184 20.4883C82.3184 20.3281 82.2812 20.1934 82.207 20.084C82.1367 19.9707 82.0391 19.8711 81.9141 19.7852C81.793 19.6992 81.6484 19.623 81.4805 19.5566C81.3164 19.4863 81.1387 19.4141 80.9473 19.3398C80.6816 19.2344 80.4473 19.1289 80.2441 19.0234C80.0449 18.9141 79.877 18.793 79.7402 18.6602C79.6074 18.5234 79.5059 18.3691 79.4355 18.1973C79.3691 18.0254 79.3359 17.8242 79.3359 17.5938C79.3359 17.3125 79.4004 17.0645 79.5293 16.8496C79.6582 16.6309 79.8301 16.4492 80.0449 16.3047C80.2598 16.1562 80.5039 16.0449 80.7773 15.9707C81.0547 15.8965 81.3398 15.8594 81.6328 15.8594C82.1523 15.8594 82.6172 15.9492 83.0273 16.1289V17.1016C82.5859 16.8125 82.0781 16.668 81.5039 16.668C81.3242 16.668 81.1621 16.6895 81.0176 16.7324C80.873 16.7715 80.748 16.8281 80.6426 16.9023C80.541 16.9766 80.4609 17.0664 80.4023 17.1719C80.3477 17.2734 80.3203 17.3867 80.3203 17.5117C80.3203 17.668 80.3477 17.7988 80.4023 17.9043C80.4609 18.0098 80.5449 18.1035 80.6543 18.1855C80.7637 18.2676 80.8965 18.3418 81.0527 18.4082C81.209 18.4746 81.3867 18.5469 81.5859 18.625C81.8516 18.7266 82.0898 18.832 82.3008 18.9414C82.5117 19.0469 82.6914 19.168 82.8398 19.3047C82.9883 19.4375 83.1016 19.5918 83.1797 19.7676C83.2617 19.9434 83.3027 20.1523 83.3027 20.3945C83.3027 20.6914 83.2363 20.9492 83.1035 21.168C82.9746 21.3867 82.8008 21.5684 82.582 21.7129C82.3633 21.8574 82.1113 21.9648 81.8262 22.0352C81.541 22.1055 81.2422 22.1406 80.9297 22.1406C80.3125 22.1406 79.7773 22.0215 79.3242 21.7832Z" fill="white"/>
<path d="M276.32 14.6159L282.32 19.6159M287.68 14.6159L281.68 19.6159" stroke="white"/>
<path d="M269.088 60.4844C269.088 60.1504 269.141 59.8164 269.246 59.4824C269.352 59.1426 269.501 58.8262 269.694 58.5332C269.894 58.2402 270.137 57.9736 270.424 57.7334C270.717 57.4932 271.048 57.3027 271.417 57.1621C270.872 56.8574 270.438 56.4678 270.116 55.9932C269.794 55.5127 269.633 54.9824 269.633 54.4023C269.633 53.9395 269.721 53.5117 269.896 53.1191C270.078 52.7266 270.327 52.3867 270.644 52.0996C270.96 51.8125 271.335 51.5898 271.769 51.4316C272.202 51.2676 272.671 51.1855 273.175 51.1855C273.685 51.1855 274.156 51.2676 274.59 51.4316C275.023 51.5957 275.398 51.8213 275.715 52.1084C276.031 52.3955 276.277 52.7354 276.453 53.1279C276.629 53.5205 276.717 53.9453 276.717 54.4023C276.717 54.9824 276.556 55.5127 276.233 55.9932C275.911 56.4678 275.483 56.8574 274.95 57.1621C275.313 57.3027 275.639 57.4932 275.926 57.7334C276.213 57.9736 276.453 58.2402 276.646 58.5332C276.846 58.8262 276.998 59.1426 277.104 59.4824C277.209 59.8164 277.262 60.1504 277.262 60.4844C277.262 61.0352 277.162 61.5391 276.963 61.9961C276.764 62.4531 276.482 62.8457 276.119 63.1738C275.762 63.4961 275.331 63.748 274.827 63.9297C274.329 64.1113 273.778 64.2021 273.175 64.2021C272.577 64.2021 272.029 64.1113 271.531 63.9297C271.033 63.748 270.603 63.4961 270.239 63.1738C269.876 62.8457 269.592 62.4531 269.387 61.9961C269.188 61.5391 269.088 61.0352 269.088 60.4844ZM270.652 60.3613C270.652 60.7539 270.711 61.1084 270.828 61.4248C270.951 61.7412 271.121 62.0107 271.338 62.2334C271.561 62.4561 271.827 62.6289 272.138 62.752C272.454 62.8691 272.803 62.9277 273.184 62.9277C273.553 62.9277 273.893 62.8662 274.203 62.7432C274.514 62.6201 274.78 62.4473 275.003 62.2246C275.231 62.002 275.407 61.7324 275.53 61.416C275.659 61.0996 275.724 60.748 275.724 60.3613C275.724 60.0098 275.662 59.6816 275.539 59.377C275.422 59.0664 275.252 58.7939 275.029 58.5596C274.807 58.3252 274.54 58.1406 274.229 58.0059C273.919 57.8711 273.57 57.8037 273.184 57.8037C272.82 57.8037 272.483 57.8682 272.173 57.9971C271.868 58.1201 271.602 58.2959 271.373 58.5244C271.15 58.7471 270.975 59.0166 270.846 59.333C270.717 59.6436 270.652 59.9863 270.652 60.3613ZM271.101 54.5166C271.101 54.8154 271.153 55.0938 271.259 55.3516C271.37 55.6035 271.52 55.8262 271.707 56.0195C271.9 56.207 272.123 56.3564 272.375 56.4678C272.627 56.5732 272.896 56.626 273.184 56.626C273.471 56.626 273.74 56.5703 273.992 56.459C274.25 56.3477 274.473 56.1982 274.66 56.0107C274.848 55.8174 274.997 55.5947 275.108 55.3428C275.22 55.085 275.275 54.8096 275.275 54.5166C275.275 54.2119 275.22 53.9307 275.108 53.6729C275.003 53.415 274.856 53.1924 274.669 53.0049C274.481 52.8174 274.259 52.6709 274.001 52.5654C273.749 52.4541 273.477 52.3984 273.184 52.3984C272.873 52.3984 272.589 52.4541 272.331 52.5654C272.079 52.6768 271.859 52.8291 271.672 53.0225C271.49 53.21 271.35 53.4326 271.25 53.6904C271.15 53.9482 271.101 54.2236 271.101 54.5166ZM284.363 64H282.922V53.1104C282.811 53.2217 282.646 53.3506 282.43 53.4971C282.219 53.6377 281.979 53.7783 281.709 53.9189C281.445 54.0596 281.164 54.1914 280.865 54.3145C280.572 54.4375 280.285 54.5342 280.004 54.6045V53.1455C280.32 53.0576 280.654 52.9404 281.006 52.7939C281.363 52.6416 281.712 52.4746 282.052 52.293C282.397 52.1055 282.723 51.9121 283.027 51.7129C283.332 51.5078 283.596 51.3086 283.818 51.1152H284.363V64Z" fill="white"/>
</svg>
