<svg width="301" height="81" viewBox="0 0 301 81" fill="none" xmlns="http://www.w3.org/2000/svg">
<g clip-path="url(#clip0)">
<rect width="301" height="81" fill="white"/>
<rect x="5" y="35" width="12" height="46" fill="#F7F7F7"/>
<path d="M7.691 17V16.376L8.731 16.22C8.89567 16.194 9.00833 16.1333 9.069 16.038C9.12967 15.9427 9.16 15.7867 9.16 15.57V8.615H8.445C8.12433 8.615 7.85567 8.641 7.639 8.693C7.42233 8.745 7.236 8.84467 7.08 8.992C6.924 9.13933 6.781 9.34733 6.651 9.616C6.52967 9.88467 6.39533 10.2357 6.248 10.669L5.546 10.5L6.053 7.9H13.567L14.048 10.5L13.333 10.669C13.151 10.0883 12.9733 9.655 12.8 9.369C12.6353 9.07433 12.4273 8.875 12.176 8.771C11.9333 8.667 11.5997 8.615 11.175 8.615H10.447V15.622C10.447 15.8387 10.473 15.986 10.525 16.064C10.5857 16.1333 10.707 16.1853 10.889 16.22L11.916 16.376V17H7.691ZM15.1177 17V16.363L15.8587 16.246C16.032 16.22 16.1403 16.1637 16.1837 16.077C16.2357 15.9903 16.2617 15.8257 16.2617 15.583V12.034C16.2617 11.7133 16.2313 11.5053 16.1707 11.41C16.1187 11.306 15.993 11.241 15.7937 11.215L15.1697 11.124L15.2607 10.474L17.3147 10.37L17.4707 10.435V15.635C17.4707 15.8517 17.4967 16.0033 17.5487 16.09C17.6093 16.168 17.722 16.22 17.8867 16.246L18.6147 16.376V17H15.1177ZM16.6777 8.94C16.4263 8.94 16.2183 8.862 16.0537 8.706C15.889 8.54133 15.8067 8.33333 15.8067 8.082C15.8067 7.83067 15.889 7.62267 16.0537 7.458C16.2183 7.29333 16.4263 7.211 16.6777 7.211C16.9377 7.211 17.15 7.29333 17.3147 7.458C17.4793 7.614 17.5617 7.81767 17.5617 8.069C17.5617 8.32033 17.4793 8.52833 17.3147 8.693C17.15 8.85767 16.9377 8.94 16.6777 8.94ZM22.1638 17.182C21.5744 17.182 21.1368 17.026 20.8508 16.714C20.5734 16.3933 20.4348 15.9037 20.4348 15.245V11.228H19.4078V10.552C19.7111 10.526 19.9624 10.435 20.1618 10.279C20.3611 10.1143 20.5171 9.86733 20.6298 9.538C20.7424 9.2 20.8161 8.76667 20.8508 8.238L21.4748 8.16L21.6438 8.238V10.409H23.6718V11.228H21.6438V15.154C21.6438 15.518 21.7174 15.791 21.8648 15.973C22.0208 16.1463 22.2548 16.233 22.5668 16.233C22.7921 16.233 23.0044 16.1983 23.2038 16.129C23.4031 16.0597 23.6068 15.9557 23.8148 15.817L24.1138 16.285C23.8364 16.571 23.5288 16.792 23.1908 16.948C22.8528 17.104 22.5104 17.182 22.1638 17.182ZM24.7286 17V16.363L25.4696 16.246C25.643 16.22 25.7513 16.1637 25.7946 16.077C25.8466 15.9903 25.8726 15.8257 25.8726 15.583V8.641C25.8726 8.33767 25.838 8.14267 25.7686 8.056C25.708 7.96067 25.5563 7.89567 25.3136 7.861L24.7416 7.77L24.8196 7.107L26.9386 7.042L27.0816 7.185V15.635C27.0816 15.8517 27.1076 16.0033 27.1596 16.09C27.2203 16.168 27.333 16.22 27.4976 16.246L28.2256 16.376V17H24.7286ZM32.1152 17.182C31.4825 17.182 30.9322 17.0433 30.4642 16.766C30.0048 16.4887 29.6452 16.0943 29.3852 15.583C29.1338 15.0717 29.0082 14.4737 29.0082 13.789C29.0082 13.0697 29.1382 12.4457 29.3982 11.917C29.6668 11.3797 30.0395 10.9637 30.5162 10.669C30.9928 10.3743 31.5475 10.227 32.1802 10.227C32.8995 10.227 33.4758 10.4393 33.9092 10.864C34.3512 11.28 34.5722 11.8347 34.5722 12.528C34.5722 12.71 34.5548 12.9093 34.5202 13.126C34.4942 13.3427 34.4508 13.568 34.3902 13.802H30.3212C30.3472 14.5647 30.5422 15.1583 30.9062 15.583C31.2788 16.0077 31.7815 16.22 32.4142 16.22C32.7435 16.22 33.0642 16.1507 33.3762 16.012C33.6882 15.8733 33.9655 15.6827 34.2082 15.44L34.6632 15.895C34.4725 16.155 34.2385 16.3847 33.9612 16.584C33.6925 16.7747 33.3978 16.922 33.0772 17.026C32.7652 17.13 32.4445 17.182 32.1152 17.182ZM30.3212 13.074H33.3112C33.3285 12.9873 33.3372 12.8963 33.3372 12.801C33.3458 12.697 33.3502 12.5887 33.3502 12.476C33.3502 11.9647 33.2375 11.579 33.0122 11.319C32.7955 11.0503 32.4705 10.916 32.0372 10.916C31.5432 10.916 31.1488 11.1023 30.8542 11.475C30.5682 11.839 30.3905 12.372 30.3212 13.074Z" fill="#767676"/>
<path d="M5.1125 30V29.64L5.4725 29.58C5.5625 29.56 5.6275 29.5275 5.6675 29.4825C5.7075 29.4325 5.7575 29.33 5.8175 29.175L7.4 24.75H8.195L9.7625 29.1825C9.8125 29.3125 9.8525 29.4025 9.8825 29.4525C9.9175 29.5025 9.9875 29.54 10.0925 29.565L10.4 29.625V30H8.3975V29.64L8.8325 29.5875C8.9325 29.5725 8.9925 29.5375 9.0125 29.4825C9.0375 29.4275 9.025 29.3375 8.975 29.2125L8.6525 28.2675H6.6425L6.3275 29.1825C6.2825 29.3075 6.2725 29.4 6.2975 29.46C6.3225 29.52 6.39 29.5625 6.5 29.5875L6.9275 29.6475V30H5.1125ZM6.7925 27.84H8.51L7.6775 25.3725H7.6475L6.7925 27.84ZM12.2023 30.105C11.9423 30.105 11.7223 30.0575 11.5423 29.9625C11.3623 29.8625 11.2273 29.7175 11.1373 29.5275C11.0473 29.3375 11.0023 29.1025 11.0023 28.8225V27.105C11.0023 26.925 10.9873 26.8075 10.9573 26.7525C10.9273 26.6975 10.8573 26.66 10.7473 26.64L10.4173 26.5875L10.4773 26.2275L11.6098 26.145L11.6998 26.1975V28.605C11.6998 28.845 11.7223 29.035 11.7673 29.175C11.8123 29.315 11.8873 29.415 11.9923 29.475C12.0973 29.535 12.2398 29.565 12.4198 29.565C12.7298 29.565 12.9748 29.4725 13.1548 29.2875C13.3398 29.0975 13.4323 28.8425 13.4323 28.5225V27.105C13.4323 26.925 13.4173 26.8075 13.3873 26.7525C13.3573 26.6975 13.2873 26.66 13.1773 26.64L12.8398 26.5875L12.8998 26.2275L14.0398 26.145L14.1298 26.1975V29.2425C14.1298 29.3625 14.1448 29.445 14.1748 29.49C14.2098 29.53 14.2748 29.56 14.3698 29.58L14.7448 29.6475V30L13.5823 30.045L13.4773 29.4375H13.4548C13.3248 29.5925 13.1948 29.72 13.0648 29.82C12.9348 29.915 12.7998 29.985 12.6598 30.03C12.5198 30.08 12.3673 30.105 12.2023 30.105ZM16.6527 30.105C16.3127 30.105 16.0602 30.015 15.8952 29.835C15.7352 29.65 15.6552 29.3675 15.6552 28.9875V26.67H15.0627V26.28C15.2377 26.265 15.3827 26.2125 15.4977 26.1225C15.6127 26.0275 15.7027 25.885 15.7677 25.695C15.8327 25.5 15.8752 25.25 15.8952 24.945L16.2552 24.9L16.3527 24.945V26.1975H17.5227V26.67H16.3527V28.935C16.3527 29.145 16.3952 29.3025 16.4802 29.4075C16.5702 29.5075 16.7052 29.5575 16.8852 29.5575C17.0152 29.5575 17.1377 29.5375 17.2527 29.4975C17.3677 29.4575 17.4852 29.3975 17.6052 29.3175L17.7777 29.5875C17.6177 29.7525 17.4402 29.88 17.2452 29.97C17.0502 30.06 16.8527 30.105 16.6527 30.105ZM18.2299 30V29.6475L18.5749 29.58C18.6599 29.565 18.7149 29.5325 18.7399 29.4825C18.7699 29.4325 18.7849 29.345 18.7849 29.22V25.17C18.7849 24.995 18.7649 24.8825 18.7249 24.8325C18.6899 24.7775 18.6024 24.74 18.4624 24.72L18.1324 24.6675L18.1774 24.2925L19.3999 24.255L19.4824 24.3375V26.7225V26.79C19.5624 26.65 19.6674 26.5275 19.7974 26.4225C19.9274 26.3175 20.0724 26.2375 20.2324 26.1825C20.3974 26.1225 20.5649 26.0925 20.7349 26.0925C20.9999 26.0925 21.2224 26.1425 21.4024 26.2425C21.5874 26.3375 21.7274 26.48 21.8224 26.67C21.9174 26.86 21.9649 27.095 21.9649 27.375V29.28C21.9649 29.39 21.9799 29.465 22.0099 29.505C22.0399 29.54 22.1024 29.5675 22.1974 29.5875L22.5499 29.6475V30H20.7124V29.655L21.0424 29.595C21.1374 29.575 21.1974 29.545 21.2224 29.505C21.2524 29.465 21.2674 29.39 21.2674 29.28V27.5925C21.2674 27.3575 21.2424 27.17 21.1924 27.03C21.1474 26.89 21.0699 26.79 20.9599 26.73C20.8499 26.665 20.7024 26.6325 20.5174 26.6325C20.2024 26.6325 19.9499 26.7275 19.7599 26.9175C19.5749 27.1075 19.4824 27.36 19.4824 27.675V29.25C19.4824 29.365 19.4949 29.445 19.5199 29.49C19.5449 29.53 19.5949 29.5575 19.6699 29.5725L20.0674 29.655V30H18.2299ZM24.9507 30.105C24.5807 30.105 24.2582 30.0275 23.9832 29.8725C23.7082 29.7125 23.4957 29.49 23.3457 29.205C23.2007 28.915 23.1282 28.575 23.1282 28.185C23.1282 27.755 23.2057 27.385 23.3607 27.075C23.5157 26.76 23.7382 26.5175 24.0282 26.3475C24.3182 26.1775 24.6607 26.0925 25.0557 26.0925C25.4207 26.0925 25.7357 26.17 26.0007 26.325C26.2657 26.48 26.4707 26.7 26.6157 26.985C26.7607 27.27 26.8332 27.6075 26.8332 27.9975C26.8332 28.4225 26.7557 28.795 26.6007 29.115C26.4457 29.43 26.2282 29.675 25.9482 29.85C25.6682 30.02 25.3357 30.105 24.9507 30.105ZM25.0557 29.64C25.3807 29.64 25.6307 29.515 25.8057 29.265C25.9807 29.01 26.0682 28.6475 26.0682 28.1775C26.0682 27.6725 25.9657 27.2725 25.7607 26.9775C25.5607 26.6825 25.2857 26.535 24.9357 26.535C24.6007 26.535 24.3407 26.6575 24.1557 26.9025C23.9757 27.1475 23.8857 27.5 23.8857 27.96C23.8857 28.485 23.9882 28.8975 24.1932 29.1975C24.4032 29.4925 24.6907 29.64 25.0557 29.64ZM27.5902 30V29.64L27.9502 29.5725C28.0302 29.5575 28.0827 29.5275 28.1077 29.4825C28.1327 29.4325 28.1452 29.3425 28.1452 29.2125V27.1125C28.1452 26.9325 28.1302 26.815 28.1002 26.76C28.0702 26.705 28.0002 26.6675 27.8902 26.6475L27.5227 26.595L27.5752 26.2275L28.5877 26.145L28.6777 26.1975L28.7602 26.8725H28.7827C29.0827 26.3525 29.4552 26.0925 29.9002 26.0925C30.1352 26.0925 30.3227 26.1575 30.4627 26.2875C30.6027 26.4175 30.6727 26.5925 30.6727 26.8125C30.6727 27.0075 30.6302 27.155 30.5452 27.255C30.4602 27.355 30.3352 27.405 30.1702 27.405C30.0302 27.405 29.9202 27.3775 29.8402 27.3225C29.7652 27.2625 29.7277 27.18 29.7277 27.075C29.7277 27.02 29.7377 26.9575 29.7577 26.8875C29.7827 26.8175 29.8202 26.735 29.8702 26.64C29.7602 26.585 29.6452 26.5775 29.5252 26.6175C29.4052 26.6525 29.2927 26.725 29.1877 26.835C29.0877 26.94 29.0052 27.07 28.9402 27.225C28.8752 27.375 28.8427 27.535 28.8427 27.705V29.2275C28.8427 29.3525 28.8527 29.435 28.8727 29.475C28.8977 29.51 28.9502 29.535 29.0302 29.55L29.6752 29.6475V30H27.5902Z" fill="#767676"/>
<line x1="5" y1="35.5" x2="295" y2="35.5" stroke="#DDDDDD"/>
<line x1="16.5" y1="35" x2="16.5" y2="81" stroke="#DDDDDD"/>
<line x1="150.5" y1="36" x2="150.5" y2="82" stroke="#DDDDDD"/>
<path d="M14.615 41.615V42H12.585V41.615H13.43V39.06L12.6525 39.535L12.445 39.195L13.485 38.555H13.9075V41.615H14.615Z" fill="#A0A09F"/>
<path d="M20.455 39.7675L20.33 40.7575H20.6425V41.2775H20.26L20.165 42H19.5125L19.6075 41.2775H19.1325L19.0375 42H18.385L18.475 41.2775H18.1775V40.7575H18.545L18.675 39.7675H18.3625V39.245H18.745L18.835 38.535H19.4925L19.395 39.245H19.8725L19.9675 38.535H20.62L20.525 39.245H20.8275V39.7675H20.455ZM19.1975 40.7575H19.6725L19.8025 39.7675H19.3275L19.1975 40.7575ZM25.9161 42V40.54H25.0761V42H24.2561V38.535H25.0761V39.865H25.9161V38.535H26.7361V42H25.9161ZM28.0291 40.9025C28.0558 41.1192 28.1266 41.275 28.2416 41.37C28.3566 41.4633 28.4983 41.51 28.6666 41.51C28.7883 41.51 28.9058 41.49 29.0191 41.45C29.1325 41.41 29.2416 41.3567 29.3466 41.29L29.6641 41.72C29.5391 41.8267 29.3875 41.9142 29.2091 41.9825C29.0325 42.0508 28.8308 42.085 28.6041 42.085C28.3008 42.085 28.0466 42.025 27.8416 41.905C27.6366 41.7833 27.4825 41.6167 27.3791 41.405C27.2758 41.1933 27.2241 40.95 27.2241 40.675C27.2241 40.4133 27.2741 40.1758 27.3741 39.9625C27.4741 39.7475 27.62 39.5767 27.8116 39.45C28.005 39.3217 28.2408 39.2575 28.5191 39.2575C28.7725 39.2575 28.9916 39.3117 29.1766 39.42C29.3633 39.5283 29.5075 39.6842 29.6091 39.8875C29.7125 40.0908 29.7641 40.335 29.7641 40.62C29.7641 40.665 29.7625 40.7133 29.7591 40.765C29.7575 40.8167 29.7541 40.8625 29.7491 40.9025H28.0291ZM28.5191 39.7875C28.3775 39.7875 28.2633 39.8383 28.1766 39.94C28.09 40.0417 28.0375 40.2042 28.0191 40.4275H28.9941C28.9925 40.2342 28.955 40.0792 28.8816 39.9625C28.8083 39.8458 28.6875 39.7875 28.5191 39.7875ZM31.7272 38.29V41.165C31.7272 41.2717 31.7572 41.3483 31.8172 41.395C31.8789 41.44 31.963 41.4625 32.0697 41.4625C32.138 41.4625 32.2039 41.455 32.2672 41.44C32.3305 41.4233 32.3897 41.4042 32.4447 41.3825L32.6347 41.91C32.5447 41.9567 32.4364 41.9975 32.3097 42.0325C32.183 42.0675 32.0355 42.085 31.8672 42.085C31.5472 42.085 31.3122 41.9933 31.1622 41.81C31.0122 41.625 30.9372 41.3775 30.9372 41.0675V38.83H30.1547V38.29H31.7272ZM34.7252 38.29V41.165C34.7252 41.2717 34.7552 41.3483 34.8152 41.395C34.8769 41.44 34.9611 41.4625 35.0677 41.4625C35.1361 41.4625 35.2019 41.455 35.2652 41.44C35.3286 41.4233 35.3877 41.4042 35.4427 41.3825L35.6327 41.91C35.5427 41.9567 35.4344 41.9975 35.3077 42.0325C35.1811 42.0675 35.0336 42.085 34.8652 42.085C34.5452 42.085 34.3102 41.9933 34.1602 41.81C34.0102 41.625 33.9352 41.3775 33.9352 41.0675V38.83H33.1527V38.29H34.7252ZM37.4883 39.2575C37.7616 39.2575 37.9941 39.3158 38.1858 39.4325C38.3774 39.5492 38.5241 39.7133 38.6258 39.925C38.7274 40.135 38.7783 40.3817 38.7783 40.665C38.7783 41.1083 38.6649 41.4558 38.4383 41.7075C38.2116 41.9592 37.8949 42.085 37.4883 42.085C37.0816 42.085 36.7649 41.9608 36.5383 41.7125C36.3116 41.4642 36.1983 41.1167 36.1983 40.67C36.1983 40.3883 36.2491 40.1417 36.3508 39.93C36.4541 39.7183 36.6016 39.5533 36.7933 39.435C36.9866 39.3167 37.2183 39.2575 37.4883 39.2575ZM37.4883 39.84C37.3266 39.84 37.2066 39.9067 37.1283 40.04C37.0516 40.1717 37.0133 40.3817 37.0133 40.67C37.0133 40.9633 37.0516 41.1758 37.1283 41.3075C37.2066 41.4392 37.3266 41.505 37.4883 41.505C37.6499 41.505 37.7691 41.4392 37.8458 41.3075C37.9241 41.1758 37.9633 40.9617 37.9633 40.665C37.9633 40.3783 37.9241 40.1692 37.8458 40.0375C37.7691 39.9058 37.6499 39.84 37.4883 39.84ZM44.5894 42H43.7169L43.4894 40.215L43.2519 42H42.3944L42.0019 39.345H42.7244L42.8969 41.5075L43.1769 39.68H43.8419L44.0919 41.5075L44.2694 39.345H44.9669L44.5894 42ZM46.4824 39.2575C46.7558 39.2575 46.9883 39.3158 47.1799 39.4325C47.3716 39.5492 47.5183 39.7133 47.6199 39.925C47.7216 40.135 47.7724 40.3817 47.7724 40.665C47.7724 41.1083 47.6591 41.4558 47.4324 41.7075C47.2058 41.9592 46.8891 42.085 46.4824 42.085C46.0758 42.085 45.7591 41.9608 45.5324 41.7125C45.3058 41.4642 45.1924 41.1167 45.1924 40.67C45.1924 40.3883 45.2433 40.1417 45.3449 39.93C45.4483 39.7183 45.5958 39.5533 45.7874 39.435C45.9808 39.3167 46.2124 39.2575 46.4824 39.2575ZM46.4824 39.84C46.3208 39.84 46.2008 39.9067 46.1224 40.04C46.0458 40.1717 46.0074 40.3817 46.0074 40.67C46.0074 40.9633 46.0458 41.1758 46.1224 41.3075C46.2008 41.4392 46.3208 41.505 46.4824 41.505C46.6441 41.505 46.7633 41.4392 46.8399 41.3075C46.9183 41.1758 46.9574 40.9617 46.9574 40.665C46.9574 40.3783 46.9183 40.1692 46.8399 40.0375C46.7633 39.9058 46.6441 39.84 46.4824 39.84ZM48.3555 42V41.47H48.7055V39.87H48.3555V39.345H49.308L49.453 39.9425C49.548 39.7142 49.6688 39.5442 49.8155 39.4325C49.9638 39.3208 50.1446 39.265 50.358 39.265C50.448 39.265 50.528 39.2725 50.598 39.2875C50.668 39.3008 50.7338 39.32 50.7955 39.345L50.648 40.455H50.153V39.965C50.003 39.9917 49.8713 40.0733 49.758 40.21C49.6446 40.345 49.5571 40.5117 49.4955 40.71V41.47H50.0205V42H48.3555ZM52.7135 38.29V41.165C52.7135 41.2717 52.7435 41.3483 52.8035 41.395C52.8652 41.44 52.9493 41.4625 53.056 41.4625C53.1243 41.4625 53.1902 41.455 53.2535 41.44C53.3168 41.4233 53.376 41.4042 53.431 41.3825L53.621 41.91C53.531 41.9567 53.4227 41.9975 53.296 42.0325C53.1693 42.0675 53.0218 42.085 52.8535 42.085C52.5335 42.085 52.2985 41.9933 52.1485 41.81C51.9985 41.625 51.9235 41.3775 51.9235 41.0675V38.83H51.141V38.29H52.7135ZM55.8366 38.2075L56.6266 38.29V42H55.9266L55.8866 41.7075C55.8132 41.8108 55.7157 41.9 55.5941 41.975C55.4724 42.0483 55.3249 42.085 55.1516 42.085C54.9316 42.085 54.7491 42.0258 54.6041 41.9075C54.4607 41.7892 54.3532 41.6242 54.2816 41.4125C54.2116 41.1992 54.1766 40.95 54.1766 40.665C54.1766 40.3917 54.2191 40.1492 54.3041 39.9375C54.3891 39.7258 54.5107 39.56 54.6691 39.44C54.8274 39.3183 55.0157 39.2575 55.2341 39.2575C55.4724 39.2575 55.6732 39.3392 55.8366 39.5025V38.2075ZM55.4466 39.835C55.3099 39.835 55.1999 39.9 55.1166 40.03C55.0332 40.1583 54.9916 40.3717 54.9916 40.67C54.9916 40.8883 55.0091 41.0583 55.0441 41.18C55.0791 41.3 55.1274 41.3842 55.1891 41.4325C55.2507 41.4808 55.3216 41.505 55.4016 41.505C55.4899 41.505 55.5699 41.4775 55.6416 41.4225C55.7149 41.3675 55.7799 41.2925 55.8366 41.1975V40.0525C55.7816 39.9842 55.7232 39.9308 55.6616 39.8925C55.5999 39.8542 55.5282 39.835 55.4466 39.835ZM58.8946 38.535L58.7946 40.725H58.1571L58.0546 38.535H58.8946ZM58.4746 41.18C58.6013 41.18 58.7079 41.225 58.7946 41.315C58.8829 41.4033 58.9271 41.5092 58.9271 41.6325C58.9271 41.7558 58.8829 41.8625 58.7946 41.9525C58.7079 42.0408 58.6013 42.085 58.4746 42.085C58.3513 42.085 58.2446 42.0408 58.1546 41.9525C58.0663 41.8625 58.0221 41.7558 58.0221 41.6325C58.0221 41.5092 58.0663 41.4033 58.1546 41.315C58.2446 41.225 58.3513 41.18 58.4746 41.18Z" fill="#0000FF"/>
<path d="M162.806 60V59.376L163.56 59.259C163.725 59.233 163.833 59.1767 163.885 59.09C163.937 59.0033 163.963 58.8387 163.963 58.596V52.252C163.963 52.0267 163.933 51.8793 163.872 51.81C163.82 51.732 163.707 51.6757 163.534 51.641L162.806 51.524V50.9H166.394V51.524L165.64 51.641C165.484 51.667 165.38 51.7277 165.328 51.823C165.276 51.9097 165.25 52.07 165.25 52.304V54.917H169.67V52.252C169.67 52.0267 169.64 51.8793 169.579 51.81C169.527 51.732 169.414 51.6757 169.241 51.641L168.526 51.524V50.9H172.101V51.524L171.36 51.641C171.195 51.667 171.087 51.7233 171.035 51.81C170.983 51.8967 170.957 52.0613 170.957 52.304V58.648C170.957 58.8647 170.983 59.012 171.035 59.09C171.096 59.168 171.213 59.2243 171.386 59.259L172.101 59.376V60H168.526V59.376L169.267 59.259C169.432 59.233 169.54 59.1767 169.592 59.09C169.644 59.0033 169.67 58.8387 169.67 58.596V55.736H165.25V58.648C165.25 58.8647 165.276 59.012 165.328 59.09C165.389 59.168 165.501 59.2243 165.666 59.259L166.394 59.376V60H162.806ZM176.483 60.182C175.851 60.182 175.3 60.0433 174.832 59.766C174.373 59.4887 174.013 59.0943 173.753 58.583C173.502 58.0717 173.376 57.4737 173.376 56.789C173.376 56.0697 173.506 55.4457 173.766 54.917C174.035 54.3797 174.408 53.9637 174.884 53.669C175.361 53.3743 175.916 53.227 176.548 53.227C177.268 53.227 177.844 53.4393 178.277 53.864C178.719 54.28 178.94 54.8347 178.94 55.528C178.94 55.71 178.923 55.9093 178.888 56.126C178.862 56.3427 178.819 56.568 178.758 56.802H174.689C174.715 57.5647 174.91 58.1583 175.274 58.583C175.647 59.0077 176.15 59.22 176.782 59.22C177.112 59.22 177.432 59.1507 177.744 59.012C178.056 58.8733 178.334 58.6827 178.576 58.44L179.031 58.895C178.841 59.155 178.607 59.3847 178.329 59.584C178.061 59.7747 177.766 59.922 177.445 60.026C177.133 60.13 176.813 60.182 176.483 60.182ZM174.689 56.074H177.679C177.697 55.9873 177.705 55.8963 177.705 55.801C177.714 55.697 177.718 55.5887 177.718 55.476C177.718 54.9647 177.606 54.579 177.38 54.319C177.164 54.0503 176.839 53.916 176.405 53.916C175.911 53.916 175.517 54.1023 175.222 54.475C174.936 54.839 174.759 55.372 174.689 56.074ZM179.875 60V59.363L180.616 59.246C180.789 59.22 180.898 59.1637 180.941 59.077C180.993 58.9903 181.019 58.8257 181.019 58.583V51.641C181.019 51.3377 180.984 51.1427 180.915 51.056C180.854 50.9607 180.703 50.8957 180.46 50.861L179.888 50.77L179.966 50.107L182.085 50.042L182.228 50.185V58.635C182.228 58.8517 182.254 59.0033 182.306 59.09C182.367 59.168 182.479 59.22 182.644 59.246L183.372 59.376V60H179.875ZM184.23 60V59.363L184.971 59.246C185.144 59.22 185.252 59.1637 185.296 59.077C185.348 58.9903 185.374 58.8257 185.374 58.583V51.641C185.374 51.3377 185.339 51.1427 185.27 51.056C185.209 50.9607 185.057 50.8957 184.815 50.861L184.243 50.77L184.321 50.107L186.44 50.042L186.583 50.185V58.635C186.583 58.8517 186.609 59.0033 186.661 59.09C186.721 59.168 186.834 59.22 186.999 59.246L187.727 59.376V60H184.23ZM191.668 60.182C191.027 60.182 190.468 60.0477 189.991 59.779C189.514 59.5017 189.146 59.116 188.886 58.622C188.635 58.1193 188.509 57.53 188.509 56.854C188.509 56.1087 188.643 55.4673 188.912 54.93C189.181 54.384 189.566 53.9637 190.069 53.669C190.572 53.3743 191.165 53.227 191.85 53.227C192.483 53.227 193.029 53.3613 193.488 53.63C193.947 53.8987 194.303 54.28 194.554 54.774C194.805 55.268 194.931 55.853 194.931 56.529C194.931 57.2657 194.797 57.9113 194.528 58.466C194.259 59.012 193.882 59.4367 193.397 59.74C192.912 60.0347 192.335 60.182 191.668 60.182ZM191.85 59.376C192.413 59.376 192.847 59.1593 193.15 58.726C193.453 58.284 193.605 57.6557 193.605 56.841C193.605 55.9657 193.427 55.2723 193.072 54.761C192.725 54.2497 192.249 53.994 191.642 53.994C191.061 53.994 190.611 54.2063 190.29 54.631C189.978 55.0557 189.822 55.6667 189.822 56.464C189.822 57.374 190 58.089 190.355 58.609C190.719 59.1203 191.217 59.376 191.85 59.376ZM201.498 60L199.522 52.317C199.461 52.083 199.396 51.927 199.327 51.849C199.258 51.7623 199.128 51.7017 198.937 51.667L198.417 51.563V50.9H201.849V51.524L201.186 51.615C201.013 51.641 200.904 51.6973 200.861 51.784C200.826 51.8707 200.835 52.031 200.887 52.265L202.408 58.882H202.473L204.566 50.9H205.983L208.31 58.817H208.375L209.909 52.343C209.961 52.109 209.965 51.9443 209.922 51.849C209.879 51.7537 209.77 51.6887 209.597 51.654L208.96 51.511V50.9H212.041V51.524L211.43 51.628C211.257 51.654 211.127 51.719 211.04 51.823C210.953 51.9183 210.88 52.0873 210.819 52.33L208.856 60H207.387L205.125 52.187H205.086L203.058 60H201.498ZM215.167 60.182C214.526 60.182 213.967 60.0477 213.49 59.779C213.013 59.5017 212.645 59.116 212.385 58.622C212.134 58.1193 212.008 57.53 212.008 56.854C212.008 56.1087 212.142 55.4673 212.411 54.93C212.68 54.384 213.065 53.9637 213.568 53.669C214.071 53.3743 214.664 53.227 215.349 53.227C215.982 53.227 216.528 53.3613 216.987 53.63C217.446 53.8987 217.802 54.28 218.053 54.774C218.304 55.268 218.43 55.853 218.43 56.529C218.43 57.2657 218.296 57.9113 218.027 58.466C217.758 59.012 217.381 59.4367 216.896 59.74C216.411 60.0347 215.834 60.182 215.167 60.182ZM215.349 59.376C215.912 59.376 216.346 59.1593 216.649 58.726C216.952 58.284 217.104 57.6557 217.104 56.841C217.104 55.9657 216.926 55.2723 216.571 54.761C216.224 54.2497 215.748 53.994 215.141 53.994C214.56 53.994 214.11 54.2063 213.789 54.631C213.477 55.0557 213.321 55.6667 213.321 56.464C213.321 57.374 213.499 58.089 213.854 58.609C214.218 59.1203 214.716 59.376 215.349 59.376ZM219.742 60V59.376L220.366 59.259C220.505 59.233 220.596 59.181 220.639 59.103C220.683 59.0163 220.704 58.8603 220.704 58.635V54.995C220.704 54.683 220.678 54.4793 220.626 54.384C220.574 54.2887 220.453 54.2237 220.262 54.189L219.625 54.098L219.716 53.461L221.471 53.318L221.627 53.409L221.77 54.579H221.809C222.329 53.6777 222.975 53.227 223.746 53.227C224.154 53.227 224.479 53.3397 224.721 53.565C224.964 53.7903 225.085 54.0937 225.085 54.475C225.085 54.813 225.012 55.0687 224.864 55.242C224.717 55.4153 224.5 55.502 224.214 55.502C223.972 55.502 223.781 55.4543 223.642 55.359C223.512 55.255 223.447 55.112 223.447 54.93C223.447 54.8347 223.465 54.7263 223.499 54.605C223.543 54.4837 223.608 54.3407 223.694 54.176C223.504 54.0807 223.304 54.0677 223.096 54.137C222.888 54.1977 222.693 54.3233 222.511 54.514C222.338 54.696 222.195 54.9213 222.082 55.19C221.97 55.45 221.913 55.7273 221.913 56.022V58.661C221.913 58.8777 221.931 59.0207 221.965 59.09C222.009 59.1507 222.1 59.194 222.238 59.22L223.356 59.389V60H219.742ZM225.464 60V59.363L226.205 59.246C226.378 59.22 226.487 59.1637 226.53 59.077C226.582 58.9903 226.608 58.8257 226.608 58.583V51.641C226.608 51.3377 226.573 51.1427 226.504 51.056C226.443 50.9607 226.292 50.8957 226.049 50.861L225.477 50.77L225.555 50.107L227.674 50.042L227.817 50.185V58.635C227.817 58.8517 227.843 59.0033 227.895 59.09C227.956 59.168 228.068 59.22 228.233 59.246L228.961 59.376V60H225.464ZM232.409 60.182C231.568 60.182 230.914 59.896 230.446 59.324C229.978 58.7433 229.744 57.9373 229.744 56.906C229.744 56.152 229.874 55.502 230.134 54.956C230.394 54.4013 230.758 53.9767 231.226 53.682C231.702 53.3787 232.266 53.227 232.916 53.227C233.202 53.227 233.488 53.266 233.774 53.344C234.068 53.422 234.315 53.526 234.515 53.656V51.628C234.515 51.3247 234.48 51.1297 234.411 51.043C234.35 50.9477 234.198 50.8827 233.956 50.848L233.384 50.757L233.462 50.107L235.581 50.042L235.724 50.185V58.726C235.724 58.934 235.75 59.077 235.802 59.155C235.862 59.2243 235.979 59.2763 236.153 59.311L236.79 59.428V60.039L234.788 60.117L234.606 59.09H234.567C234.281 59.454 233.956 59.727 233.592 59.909C233.236 60.091 232.842 60.182 232.409 60.182ZM232.786 59.246C233.132 59.246 233.431 59.1637 233.683 58.999C233.943 58.8257 234.146 58.5873 234.294 58.284C234.441 57.9807 234.515 57.634 234.515 57.244V54.631C234.298 54.4577 234.047 54.3277 233.761 54.241C233.483 54.1457 233.193 54.098 232.89 54.098C232.274 54.098 231.811 54.3233 231.499 54.774C231.187 55.2247 231.031 55.892 231.031 56.776C231.031 57.5733 231.182 58.1843 231.486 58.609C231.789 59.0337 232.222 59.246 232.786 59.246ZM238.821 57.491V56.555C238.821 56.0437 238.795 55.5497 238.743 55.073C238.7 54.5877 238.644 54.1283 238.574 53.695C238.514 53.2617 238.457 52.8673 238.405 52.512C238.362 52.148 238.34 51.8317 238.34 51.563C238.34 51.303 238.423 51.0993 238.587 50.952C238.752 50.796 238.973 50.718 239.25 50.718C239.519 50.718 239.723 50.7917 239.861 50.939C240.009 51.0777 240.082 51.2813 240.082 51.55C240.082 51.7927 240.056 52.0873 240.004 52.434C239.952 52.772 239.887 53.1577 239.809 53.591C239.74 54.0157 239.679 54.4793 239.627 54.982C239.575 55.476 239.549 56.0047 239.549 56.568V57.491H238.821ZM239.198 60.182C238.93 60.182 238.709 60.0997 238.535 59.935C238.362 59.7617 238.275 59.545 238.275 59.285C238.275 59.0077 238.362 58.7867 238.535 58.622C238.709 58.4487 238.93 58.362 239.198 58.362C239.467 58.362 239.684 58.4487 239.848 58.622C240.022 58.7867 240.108 59.0033 240.108 59.272C240.108 59.532 240.022 59.7487 239.848 59.922C239.684 60.0953 239.467 60.182 239.198 60.182Z" fill="black"/>
</g>
<defs>
<clipPath id="clip0">
<rect width="301" height="81" fill="white"/>
</clipPath>
</defs>
</svg>
