<svg width="301" height="81" viewBox="0 0 301 81" fill="none" xmlns="http://www.w3.org/2000/svg">
<rect width="301" height="81" fill="white"/>
<path fill-rule="evenodd" clip-rule="evenodd" d="M104 19C94.6112 19 87 26.6112 87 36V44C87 53.3888 94.6112 61 104 61H192.177C196.644 61 200.709 59.2772 203.742 56.4599C206.324 59.3052 209.593 61 213.196 61C213.207 61 213.23 60.9992 213.263 60.9982C213.398 60.9937 213.7 60.9837 214 61C211.339 59.529 209.408 55.9443 209.177 51.4V40.6L209.177 36C209.177 26.6112 201.566 19 192.177 19H104Z" fill="#007AFF"/>
<path d="M113.3 47V33.8853H105.384V47H103.528V32.2036H115.125V47H113.3Z" fill="white"/>
<path d="M122.395 37.4126C121.527 37.4126 120.809 37.6997 120.242 38.2739C119.667 38.8481 119.35 39.6035 119.288 40.54H125.369C125.348 39.6035 125.064 38.8481 124.518 38.2739C123.978 37.6997 123.27 37.4126 122.395 37.4126ZM127.091 43.8418C126.941 44.792 126.435 45.5713 125.574 46.1797C124.712 46.7949 123.69 47.1025 122.508 47.1025C120.956 47.1025 119.722 46.6001 118.806 45.5952C117.897 44.5903 117.442 43.23 117.442 41.5142C117.442 39.7983 117.897 38.4243 118.806 37.3921C119.715 36.3599 120.922 35.8438 122.426 35.8438C123.902 35.8438 125.071 36.3291 125.933 37.2998C126.794 38.2773 127.225 39.6001 127.225 41.2681V41.9653H119.288V42.0679C119.288 43.1206 119.585 43.9614 120.18 44.5903C120.775 45.2192 121.564 45.5337 122.549 45.5337C123.239 45.5337 123.837 45.3799 124.343 45.0723C124.842 44.7715 125.17 44.3613 125.328 43.8418H127.091Z" fill="white"/>
<path d="M134.618 35.8438C136.033 35.8438 137.174 36.3599 138.042 37.3921C138.917 38.4312 139.355 39.7915 139.355 41.4731C139.355 43.1548 138.921 44.5151 138.053 45.5542C137.185 46.5864 136.053 47.1025 134.659 47.1025C133.039 47.1025 131.863 46.4702 131.131 45.2056H131.09V50.6914H129.306V35.9463H130.998V37.7407H131.039C131.36 37.1665 131.846 36.7051 132.495 36.3564C133.145 36.0146 133.852 35.8438 134.618 35.8438ZM134.29 45.5132C135.267 45.5132 136.05 45.1475 136.638 44.416C137.232 43.6777 137.53 42.6968 137.53 41.4731C137.53 40.2563 137.232 39.2788 136.638 38.5405C136.05 37.8022 135.267 37.4331 134.29 37.4331C133.339 37.4331 132.567 37.8057 131.972 38.5508C131.377 39.2959 131.08 40.27 131.08 41.4731C131.08 42.6763 131.377 43.6504 131.972 44.3955C132.56 45.1406 133.333 45.5132 134.29 45.5132Z" fill="white"/>
<path d="M145.856 37.4126C144.988 37.4126 144.27 37.6997 143.703 38.2739C143.128 38.8481 142.811 39.6035 142.749 40.54H148.83C148.809 39.6035 148.525 38.8481 147.979 38.2739C147.438 37.6997 146.731 37.4126 145.856 37.4126ZM150.552 43.8418C150.402 44.792 149.896 45.5713 149.035 46.1797C148.173 46.7949 147.151 47.1025 145.969 47.1025C144.417 47.1025 143.183 46.6001 142.267 45.5952C141.358 44.5903 140.903 43.23 140.903 41.5142C140.903 39.7983 141.358 38.4243 142.267 37.3921C143.176 36.3599 144.383 35.8438 145.887 35.8438C147.363 35.8438 148.532 36.3291 149.394 37.2998C150.255 38.2773 150.686 39.6001 150.686 41.2681V41.9653H142.749V42.0679C142.749 43.1206 143.046 43.9614 143.641 44.5903C144.236 45.2192 145.025 45.5337 146.01 45.5337C146.7 45.5337 147.298 45.3799 147.804 45.0723C148.303 44.7715 148.631 44.3613 148.789 43.8418H150.552Z" fill="white"/>
<path d="M161.75 47H159.442L154.613 41.6577H154.531V47H152.767V35.9463H154.531V40.8579H154.613L159.391 35.9463H161.606L156.407 41.186L161.75 47Z" fill="white"/>
<path d="M163.329 47V35.9463H165.092V44.2417H165.174L170.865 35.9463H172.629V47H170.865V38.7046H170.783L165.092 47H163.329Z" fill="white"/>
<path d="M182.647 41.9961H177.028V47H175.264V35.9463H177.028V40.5195H182.647V35.9463H184.411V47H182.647V41.9961Z" fill="white"/>
<path d="M188.799 40.9707V45.5234H190.881C191.605 45.5234 192.187 45.3149 192.624 44.8979C193.055 44.4878 193.27 43.9375 193.27 43.2471C193.27 42.5566 193.051 42.0029 192.614 41.5859C192.183 41.1758 191.605 40.9707 190.881 40.9707H188.799ZM187.036 35.9463H188.799V39.4941H190.881C192.146 39.4941 193.154 39.8325 193.906 40.5093C194.658 41.186 195.034 42.0986 195.034 43.2471C195.034 44.3955 194.658 45.3081 193.906 45.9849C193.154 46.6616 192.146 47 190.881 47H187.036V35.9463Z" fill="white"/>
</svg>
