<svg width="301" height="81" viewBox="0 0 301 81" fill="none" xmlns="http://www.w3.org/2000/svg">
<rect width="301" height="81" fill="url(#paint0_linear)"/>
<path fill-rule="evenodd" clip-rule="evenodd" d="M174.214 16.4992C174.765 16.9663 175.083 17.6524 175.083 18.375V50.3333C175.083 51.691 173.983 52.7917 172.625 52.7917C171.267 52.7917 170.167 51.691 170.167 50.3333V21.277L145.583 25.3742V55.25C145.583 56.6077 144.483 57.7083 143.125 57.7083C141.767 57.7083 140.667 56.6077 140.667 55.25V23.2917C140.667 22.0899 141.535 21.0643 142.721 20.8668L172.221 15.9501C172.934 15.8313 173.663 16.0322 174.214 16.4992Z" fill="white"/>
<path fill-rule="evenodd" clip-rule="evenodd" d="M135.75 50.3333C133.035 50.3333 130.833 52.5346 130.833 55.25C130.833 57.9654 133.035 60.1667 135.75 60.1667C138.465 60.1667 140.667 57.9654 140.667 55.25C140.667 52.5346 138.465 50.3333 135.75 50.3333ZM125.917 55.25C125.917 49.8192 130.319 45.4167 135.75 45.4167C141.181 45.4167 145.583 49.8192 145.583 55.25C145.583 60.6808 141.181 65.0833 135.75 65.0833C130.319 65.0833 125.917 60.6808 125.917 55.25Z" fill="white"/>
<path fill-rule="evenodd" clip-rule="evenodd" d="M165.25 45.4167C162.535 45.4167 160.333 47.6179 160.333 50.3333C160.333 53.0487 162.535 55.25 165.25 55.25C167.965 55.25 170.167 53.0487 170.167 50.3333C170.167 47.6179 167.965 45.4167 165.25 45.4167ZM155.417 50.3333C155.417 44.9025 159.819 40.5 165.25 40.5C170.681 40.5 175.083 44.9025 175.083 50.3333C175.083 55.7641 170.681 60.1667 165.25 60.1667C159.819 60.1667 155.417 55.7641 155.417 50.3333Z" fill="white"/>
<defs>
<linearGradient id="paint0_linear" x1="150.5" y1="0" x2="150.5" y2="81" gradientUnits="userSpaceOnUse">
<stop stop-color="#6FA6F8"/>
<stop offset="1" stop-color="#366ABE"/>
</linearGradient>
</defs>
</svg>
